Stash.House.2012.VODRip.AC3-5.1.XviD-AXED



 
http://www.imdb.com/title/tt1919090/

PLOT INFO:
Dave and Emma have found the perfect house, until they discover a stash of heroine and end up imprisoned in it by violent thugs.


MEDIAINFO:
General
Complete name : Stash.House.2012.VODRiP.AC3-5.1.XviD-AXED.avi
Format : AVI
Format/Info : Audio Video Interleave
File size : 1.36 GiB
Duration : 1h 39mn
Overall bit rate : 1 959 Kbps

Video
ID : 0
Format : MPEG-4 Visual
Format profile : Advanced Simple@L5
Format settings, BVOP : 2
Format settings, QPel : No
Format settings, GMC : No warppoints
Format settings, Matrix : Default (H.263)
Muxing mode : Packed bitstream
Codec ID : XVID
Codec ID/Hint : XviD
Duration : 1h 39mn
Bit rate : 1 567 Kbps
Width : 720 pixels
Height : 400 pixels
Display aspect ratio : 16:9
Frame rate : 23.976 fps
Color space : YUV
Chroma subsampling : 4:2:0
Bit depth : 8 bits
Scan type : Progressive
Compression mode : Lossy
Bits/(Pixel*Frame) : 0.227
Stream size : 1.09 GiB (80%)
Writing library : XviD 1.1.2 (UTC 2006-11-01)

Audio
ID : 1
Format : AC-3
Format/Info : Audio Coding 3
Mode extension : CM (complete main)
Codec ID : 2000
Duration : 1h 39mn
Bit rate mode : Constant
Bit rate : 384 Kbps
Channel(s) : 6 channels
Channel positions : Front: L C R, Side: L R, LFE
Sampling rate : 48.0 KHz
Bit depth : 16 bits
Compression mode : Lossy
Stream size : 273 MiB (20%)
Alignment : Aligned on interleaves
Interleave, duration : 64 ms (1.53 video frames)
Interleave, preload duration : 192 ms
Title : stashhouse